<?xml version="1.0" standalone="no"?>
<!DOCTYPE svg PUBLIC "-//W3C//DTD SVG 20010904//EN"
 "http://www.w3.org/TR/2001/REC-SVG-20010904/DTD/svg10.dtd">
<svg version="1.0" xmlns="http://www.w3.org/2000/svg"
 width="399.000000pt" height="399.000000pt" viewBox="0 0 399.000000 399.000000"
 preserveAspectRatio="xMidYMid meet">
<metadata>
Created by potrace 1.11, written by Peter Selinger 2001-2013
</metadata>
<g transform="translate(0.000000,399.000000) scale(0.100000,-0.100000)"
fill="#000000" stroke="none">
<path d="M1917 3953 c-4 -3 -72 -10 -152 -14 -142 -8 -147 -9 -179 -37 -22
-19 -49 -31 -81 -35 -55 -8 -113 -41 -124 -70 -5 -14 -19 -21 -46 -24 -21 -2
-46 -8 -56 -13 -10 -6 -25 -10 -33 -10 -8 0 -36 -14 -62 -31 -44 -30 -46 -34
-41 -69 3 -21 2 -41 -2 -46 -7 -10 -44 -32 -116 -68 -28 -14 -78 -52 -110 -85
-81 -80 -83 -83 -73 -110 8 -23 -5 -81 -25 -108 -4 -6 -4 -14 2 -17 6 -4 7
-29 3 -64 -10 -83 -8 -616 2 -692 4 -36 10 -85 12 -110 5 -59 44 -260 54 -281
13 -25 2 -29 -41 -14 l-39 14 0 -28 c0 -22 7 -31 30 -41 41 -17 47 -26 75
-123 18 -64 25 -112 25 -180 1 -50 5 -112 10 -137 9 -42 24 -200 35 -370 9
-130 10 -139 23 -152 17 -17 15 -64 -3 -92 -15 -22 -14 -24 10 -40 14 -9 25
-23 25 -30 0 -24 -39 -102 -60 -121 -11 -10 -20 -24 -20 -31 0 -42 -42 -86
-63 -65 -5 5 -16 7 -23 4 -8 -3 -14 -1 -14 5 0 6 -8 9 -17 7 -10 -2 -21 -4
-25 -4 -5 -1 -8 -152 -8 -336 l0 -335 1185 0 1185 1 0 304 c0 295 -1 305 -19
305 -11 0 -23 5 -27 11 -3 6 -19 9 -34 5 -39 -7 -97 11 -115 37 -8 12 -15 36
-15 53 0 43 55 215 91 287 30 60 36 87 19 87 -24 0 -35 49 -36 160 0 113 -3
134 -16 156 -8 12 -3 61 13 125 11 42 10 48 -9 67 -13 13 -22 17 -23 10 0 -7
-3 -22 -6 -33 -3 -11 -9 -49 -13 -85 -11 -85 -24 -143 -50 -208 -11 -29 -20
-61 -20 -72 0 -11 -4 -20 -10 -20 -5 0 -10 -9 -10 -21 0 -16 -5 -20 -27 -17
-16 2 -28 9 -28 16 0 6 -4 12 -10 12 -10 0 -11 -5 -14 -42 0 -10 -12 -20 -26
-24 -26 -6 -35 -24 -12 -24 6 0 31 10 54 22 23 12 44 20 47 17 3 -3 -4 -34
-15 -69 -13 -43 -16 -67 -9 -74 13 -13 13 -53 -1 -62 -7 -4 -7 -9 -1 -13 15
-10 24 -49 12 -56 -6 -4 -10 4 -10 20 0 17 -5 25 -12 22 -8 -2 -12 -18 -10
-42 l3 -37 -36 6 c-33 6 -36 5 -31 -11 3 -11 -1 -28 -9 -39 -8 -10 -15 -30
-15 -44 -1 -22 -2 -23 -13 -8 -7 9 -17 24 -23 34 -7 12 -15 15 -25 9 -8 -5
-27 -8 -44 -6 -69 7 -93 93 -28 99 33 3 59 25 49 41 -3 5 -18 8 -33 6 -28 -3
-72 32 -86 68 -4 10 -17 17 -31 17 -27 0 -56 37 -56 71 0 15 -4 19 -16 15 -9
-3 -20 -6 -25 -6 -17 0 -9 -25 11 -38 11 -7 20 -17 20 -22 0 -6 -9 -10 -20
-10 -13 0 -20 -7 -20 -20 0 -11 6 -20 14 -20 21 0 30 -20 17 -33 -9 -9 -14 -9
-20 2 -6 9 -11 10 -15 2 -4 -6 -5 -15 -1 -20 8 -14 -46 -65 -70 -67 -28 -2
-158 20 -235 41 -46 12 -69 14 -81 7 -9 -6 -45 -8 -84 -5 -69 5 -147 -11 -208
-42 -40 -21 -97 -18 -127 5 -14 11 -31 20 -37 20 -7 0 -13 8 -13 19 0 10 -9
21 -20 24 -12 3 -20 14 -20 27 0 33 -17 15 -25 -26 -6 -36 -7 -36 -21 -15 -17
24 -44 28 -44 7 0 -7 -15 -16 -32 -20 -23 -5 -29 -9 -20 -15 9 -5 4 -8 -16 -7
-33 1 -36 18 -7 40 18 13 17 15 -20 31 -40 17 -40 17 -15 26 20 8 22 12 10 19
-9 5 -19 5 -27 -2 -8 -6 -17 -8 -20 -4 -4 4 -1 11 6 15 16 10 6 31 -15 31 -8
0 -14 9 -14 20 0 17 -3 19 -19 11 -16 -9 -18 -8 -14 10 4 15 -7 31 -41 62 -52
48 -56 57 -24 57 24 0 19 10 -8 14 -20 3 -74 94 -67 113 3 7 -1 29 -7 49 -9
27 -9 38 -1 43 12 8 3 67 -21 153 -6 20 -8 52 -4 72 4 22 3 36 -3 36 -6 0 -7
8 -4 17 5 12 2 15 -10 10 -13 -5 -17 -1 -17 14 0 11 5 17 10 14 10 -6 14 23
13 109 -1 48 -1 48 28 42 22 -4 29 -2 29 10 0 10 -6 14 -15 10 -8 -3 -25 -1
-37 4 l-23 9 25 2 c14 1 31 1 38 0 6 -1 12 5 12 13 0 10 -6 13 -15 10 -10 -4
-15 0 -15 10 0 14 4 15 20 6 11 -6 20 -8 20 -5 0 4 14 -7 31 -24 17 -17 41
-34 54 -37 24 -6 39 -41 29 -67 -4 -12 0 -14 16 -10 17 4 21 2 18 -11 -4 -25
73 -51 102 -36 21 11 40 6 40 -11 0 -5 -8 -9 -17 -9 -13 0 -14 -3 -5 -12 6 -6
30 -11 54 -11 24 0 51 -4 61 -9 9 -5 17 -5 17 0 0 5 25 15 55 22 31 7 65 22
77 32 12 10 27 18 34 18 7 0 15 6 18 13 5 10 7 10 12 0 3 -7 16 -13 30 -13 17
0 22 -4 18 -15 -4 -8 -12 -15 -19 -15 -7 0 -18 -6 -24 -14 -10 -12 -8 -17 10
-27 17 -9 24 -9 27 0 5 15 29 14 34 -1 3 -7 19 -13 36 -14 27 -1 32 2 32 20 0
12 -6 28 -12 34 -10 10 -10 15 -1 20 12 8 32 89 40 166 6 59 -13 123 -39 131
-10 4 -18 13 -18 22 0 8 -9 17 -20 20 -10 3 -22 14 -25 24 -5 14 -12 18 -26
14 -13 -4 -19 -2 -19 9 0 9 -7 16 -15 16 -8 0 -23 8 -34 19 -11 11 -29 17 -46
16 -15 -2 -43 2 -63 9 -22 8 -45 10 -57 5 -11 -4 -43 -8 -72 -8 -28 -1 -54 -5
-57 -10 -3 -4 -17 -6 -31 -4 -18 4 -27 0 -32 -13 -8 -20 -23 -27 -60 -28 -17
-1 -21 -6 -17 -18 6 -20 -12 -25 -19 -5 -3 7 -6 5 -6 -5 -1 -22 -31 -58 -48
-58 -6 0 -18 9 -26 21 -11 15 -16 17 -20 7 -5 -16 -12 -10 -21 20 -6 19 -4 22
20 22 22 0 25 2 14 15 -7 8 -16 12 -21 9 -21 -13 -28 8 -14 42 8 20 14 41 12
47 -1 7 6 11 15 11 10 -1 15 2 12 7 -3 5 2 9 10 9 9 0 16 6 16 14 0 17 39 48
52 40 4 -3 8 2 8 10 0 15 39 23 95 18 11 -1 50 -2 87 -2 36 1 69 -3 72 -8 3
-5 27 -7 53 -6 32 2 61 -4 89 -17 43 -22 95 -22 102 -1 2 6 -4 12 -13 12 -13
0 -15 6 -11 28 10 43 -23 85 -93 118 -59 28 -64 29 -228 29 -139 0 -173 -3
-197 -17 -16 -9 -33 -15 -38 -12 -4 3 -5 -2 -2 -10 4 -11 0 -16 -11 -16 -9 0
-14 -4 -11 -9 3 -4 -6 -13 -20 -19 -23 -11 -24 -10 -22 11 2 12 7 28 11 35 5
7 4 12 -2 12 -6 0 -11 6 -11 14 0 7 -9 16 -21 19 -19 5 -20 10 -14 69 4 35 10
81 15 103 4 22 7 51 7 65 -1 15 3 24 11 23 16 -4 16 14 0 19 -8 3 -5 13 10 33
12 15 22 37 22 49 0 11 10 30 23 41 13 11 32 35 42 52 14 23 29 35 53 39 18 4
55 17 82 30 27 13 70 29 97 35 26 7 51 16 54 22 4 5 14 5 26 -1 14 -8 23 -8
31 0 7 7 12 8 12 3 0 -6 4 -3 9 4 7 12 35 15 118 15 96 1 111 -1 140 -21 17
-13 38 -23 47 -23 9 0 19 -7 22 -15 4 -8 13 -15 22 -15 9 0 35 -9 58 -20 40
-20 45 -20 116 -5 41 8 108 14 149 14 91 -2 131 1 144 11 12 9 85 18 85 10 0
-3 12 -6 28 -7 107 -7 137 -15 195 -49 61 -36 76 -42 108 -43 9 -1 26 -10 39
-21 13 -11 27 -20 32 -20 4 0 8 -7 8 -15 0 -9 7 -18 15 -21 10 -4 14 -19 13
-53 -1 -25 0 -53 2 -61 3 -8 -1 -14 -10 -15 -23 0 -24 -32 -1 -51 11 -10 18
-21 15 -26 -13 -20 -12 -49 1 -55 8 -3 15 -14 15 -24 0 -10 4 -19 9 -19 13 0
42 -60 35 -71 -3 -5 2 -9 10 -9 10 0 25 -20 37 -48 15 -33 32 -54 57 -67 19
-11 38 -27 42 -35 4 -8 12 -25 18 -37 6 -12 14 -43 18 -70 3 -26 9 -49 13 -50
9 -4 1 -133 -9 -133 -5 0 -7 -16 -6 -35 2 -19 0 -33 -3 -31 -3 2 -6 -37 -7
-87 0 -51 -2 -105 -3 -122 -1 -16 -1 -70 -1 -118 1 -55 -3 -94 -11 -103 -16
-20 -6 -150 16 -192 14 -27 15 -40 6 -83 -6 -27 -11 -62 -11 -76 0 -21 3 -23
14 -14 17 15 46 133 46 190 0 22 5 43 10 46 11 7 15 1549 4 1629 -5 35 -11 46
-25 46 -24 0 -33 17 -31 56 2 18 -1 35 -6 38 -10 6 -9 32 3 59 4 9 3 23 -3 30
-5 6 -12 28 -15 47 -3 19 -15 67 -26 107 -16 58 -28 80 -68 121 -26 28 -59 63
-72 78 -13 16 -31 33 -41 39 -10 5 -42 26 -71 45 -30 19 -65 41 -79 47 -55 27
-177 71 -215 77 -45 8 -64 14 -190 55 -49 17 -119 37 -155 46 -65 15 -251 21
-263 8z m-852 -1953 c3 -5 1 -10 -4 -10 -6 0 -11 5 -11 10 0 6 2 10 4 10 3 0
8 -4 11 -10z m541 -22 c24 -17 44 -35 44 -40 0 -5 12 -13 26 -18 26 -10 25
-30 -2 -30 -22 0 -74 -29 -74 -41 0 -6 4 -8 9 -4 5 3 12 1 15 -4 6 -9 -25 -21
-54 -21 -18 0 -25 57 -9 77 12 14 -9 106 -22 97 -4 -2 -10 0 -14 6 -14 22 39
8 81 -22z m-236 7 c-7 -9 -14 -36 -14 -60 -1 -29 -6 -45 -13 -45 -7 0 -13 7
-13 15 0 8 -4 15 -8 15 -5 0 -8 10 -6 23 1 12 3 28 3 35 1 6 8 12 16 12 8 0
15 5 15 10 0 6 7 10 16 10 14 0 14 -3 4 -15z m-250 -2 c0 -10 -20 -40 -20 -31
0 3 -3 13 -6 22 -4 11 -1 16 10 16 9 0 16 -3 16 -7z m393 -40 c-7 -2 -21 -2
-30 0 -10 3 -4 5 12 5 17 0 24 -2 18 -5z m-133 -89 c0 -2 -7 -4 -15 -4 -8 0
-15 4 -15 10 0 5 7 7 15 4 8 -4 15 -8 15 -10z m19 -57 c12 -15 5 -27 -16 -27
-7 0 -13 9 -13 20 0 23 13 26 29 7z m1036 -917 c3 -5 1 -10 -4 -10 -6 0 -11 5
-11 10 0 6 2 10 4 10 3 0 8 -4 11 -10z m-994 -31 c26 -13 16 -28 -16 -21 -25
4 -31 13 -18 25 8 9 11 9 34 -4z m969 1 c0 -5 -5 -10 -11 -10 -5 0 -7 5 -4 10
3 6 8 10 11 10 2 0 4 -4 4 -10z m458 -45 c-10 -8 -68 -13 -68 -5 0 5 12 10 28
12 25 3 48 0 40 -7z m-1463 -15 c-3 -5 -11 -10 -16 -10 -6 0 -7 5 -4 10 3 6
11 10 16 10 6 0 7 -4 4 -10z m1397 -65 c-12 -22 -27 -2 -18 22 5 12 10 13 17
6 7 -7 8 -17 1 -28z m-772 -10 c18 -11 10 -43 -16 -64 l-27 -21 -30 30 c-17
17 -36 30 -41 29 -6 0 -5 -3 2 -6 10 -4 9 -8 -5 -19 -17 -12 -16 -13 10 -14
16 0 26 -4 23 -9 -3 -4 -29 -4 -58 2 -29 6 -46 13 -38 15 8 3 23 12 32 21 36
34 49 42 57 36 5 -3 12 -1 15 4 6 10 59 7 76 -4z m570 5 c0 -5 -7 -7 -15 -4
-8 4 -15 8 -15 10 0 2 7 4 15 4 8 0 15 -4 15 -10z m83 -48 c-4 -18 -8 -20 -19
-11 -19 15 -18 27 4 31 22 6 22 6 15 -20z m-353 -144 c0 -6 7 -7 16 -4 8 3 27
-2 42 -12 14 -9 27 -16 29 -14 12 9 22 -2 19 -20 -3 -13 -5 -27 -5 -31 -1 -4
-7 -7 -13 -5 -25 4 -60 -14 -54 -28 4 -11 -5 -14 -37 -14 -31 0 -38 -3 -27
-10 11 -7 6 -10 -21 -10 -22 0 -39 -6 -42 -14 -6 -16 -34 -15 -65 2 -13 8 -32
10 -45 6 -39 -14 -51 -13 -69 3 -9 8 -21 12 -27 9 -5 -3 -12 0 -14 6 -3 7 -6
0 -6 -15 -1 -17 3 -26 9 -22 16 10 50 -5 50 -21 0 -13 11 -18 36 -15 18 2 26
-31 12 -45 -7 -6 -32 -14 -55 -18 -37 -5 -44 -3 -62 20 -15 19 -21 22 -21 11
0 -13 -8 -15 -40 -11 -22 3 -46 2 -52 -2 -18 -12 -59 -14 -53 -3 4 5 -5 13
-19 19 -19 7 -26 17 -26 35 0 16 -6 25 -16 25 -8 0 -12 -4 -9 -10 3 -5 1 -10
-4 -10 -6 0 -11 5 -11 10 0 6 -6 10 -14 10 -8 0 -20 16 -26 35 -6 19 -20 37
-31 40 -19 6 -27 35 -9 35 6 0 10 -4 10 -9 0 -5 14 -4 30 2 17 6 30 17 30 24
0 9 15 13 46 13 25 0 55 5 67 12 12 6 67 13 122 15 128 4 129 4 199 1 43 -2
61 1 64 11 3 10 -1 12 -17 8 -11 -3 -21 -2 -21 3 0 4 19 11 43 17 43 9 87 -5
87 -29z m-635 -38 c3 -5 -1 -10 -9 -10 -9 0 -16 5 -16 10 0 6 4 10 9 10 6 0
13 -4 16 -10z"/>
<path d="M2280 530 c0 -11 2 -20 4 -20 2 0 6 9 9 20 3 11 1 20 -4 20 -5 0 -9
-9 -9 -20z"/>
<path d="M1895 420 c3 -5 8 -10 11 -10 2 0 4 5 4 10 0 6 -5 10 -11 10 -5 0 -7
-4 -4 -10z"/>
<path d="M1970 348 c0 -19 2 -20 10 -8 13 19 13 30 0 30 -5 0 -10 -10 -10 -22z"/>
<path d="M1820 336 c0 -9 5 -16 10 -16 6 0 10 4 10 9 0 6 -4 13 -10 16 -5 3
-10 -1 -10 -9z"/>
<path d="M2025 314 c-18 -14 -18 -14 2 -14 23 0 39 15 26 23 -5 3 -17 -1 -28
-9z"/>
<path d="M1061 2624 c0 -11 3 -14 6 -6 3 7 2 16 -1 19 -3 4 -6 -2 -5 -13z"/>
<path d="M2387 2513 c-4 -3 -28 -5 -53 -5 -45 2 -104 -22 -104 -41 0 -5 -6 -4
-14 2 -7 6 -20 9 -28 6 -21 -8 -47 -77 -41 -108 6 -31 40 -70 54 -61 12 7 133
9 145 2 5 -3 36 -1 69 4 33 5 69 9 80 9 10 0 25 5 32 11 7 5 43 12 80 15 45 3
63 1 54 -5 -18 -13 -3 -35 20 -29 12 3 19 0 19 -9 0 -8 5 -14 10 -14 6 0 10 4
10 9 0 5 27 -9 60 -31 33 -22 60 -46 60 -54 0 -8 16 -29 35 -47 26 -24 35 -40
35 -64 0 -18 -4 -33 -10 -33 -5 0 -10 5 -10 10 0 6 -11 10 -25 10 -14 0 -25 5
-25 10 0 6 9 10 21 10 11 0 18 4 15 9 -7 11 -66 -9 -66 -23 0 -5 7 -18 17 -28
13 -15 13 -18 2 -18 -8 0 -24 7 -35 15 -12 8 -24 12 -27 8 -3 -3 -21 11 -40
31 -35 37 -57 46 -57 24 0 -7 -6 -4 -12 7 -16 27 -35 46 -45 43 -16 -4 -99 15
-125 28 -28 15 -57 17 -158 15 -61 -2 -73 -7 -83 -34 -5 -13 -13 -16 -26 -12
-13 4 -25 -2 -37 -18 -11 -12 -34 -34 -52 -47 -27 -20 -35 -22 -42 -10 -7 11
-10 8 -15 -13 -4 -15 -13 -27 -20 -27 -7 0 -16 -15 -19 -32 -8 -45 -6 -171 3
-178 4 -3 7 -28 7 -55 0 -44 4 -55 35 -86 31 -33 38 -35 87 -33 40 2 52 0 52
-11 0 -9 -10 -15 -22 -15 -21 -1 -21 -2 -5 -11 9 -5 22 -7 27 -4 13 8 13 52
-1 60 -18 12 20 43 58 47 28 3 38 0 50 -19 11 -17 19 -21 28 -13 7 6 51 9 108
6 96 -4 188 10 186 29 -1 6 7 15 19 20 11 6 26 16 34 23 8 6 18 8 22 4 5 -4 7
0 6 8 -4 28 0 40 13 38 7 -2 11 5 9 16 -2 10 1 15 6 12 22 -13 162 91 162 120
0 17 12 18 27 3 8 -8 13 -8 18 1 10 16 0 23 -35 22 -19 0 -30 4 -30 13 0 9 -6
12 -17 9 -14 -5 -15 -4 -4 4 11 8 10 11 -5 15 -17 4 -16 5 3 6 12 0 23 -4 25
-11 3 -8 16 -4 39 12 19 14 28 17 21 8 -8 -10 -11 -21 -8 -26 10 -16 53 -19
77 -6 24 13 24 13 -8 14 -18 0 -33 5 -33 10 0 6 5 10 11 10 6 0 9 9 6 20 -3
11 -1 23 4 26 5 3 9 -3 10 -13 0 -16 1 -16 9 2 13 31 12 35 -15 35 -31 0 -33
25 -5 42 25 16 27 46 3 44 -12 -1 -21 11 -29 34 -6 19 -16 36 -23 38 -6 2 -11
11 -11 21 0 17 -50 61 -70 61 -6 0 -13 6 -16 14 -3 8 -18 16 -34 20 -16 3 -39
15 -50 26 -12 12 -20 15 -20 8 -1 -9 -4 -8 -13 2 -7 8 -24 23 -38 32 -26 16
-41 18 -197 15 -36 0 -67 4 -74 11 -13 13 -41 16 -51 5z m211 -531 c50 -43 43
-102 -14 -102 -10 0 -14 12 -14 40 0 23 -7 52 -16 65 -23 35 1 33 44 -3z m270
6 c-18 -27 -29 -27 -40 1 -6 18 -4 21 24 21 29 0 30 -1 16 -22z m-489 -9 c-6
-12 -14 -42 -18 -66 l-6 -45 -22 20 c-32 27 -29 52 9 84 40 33 53 35 37 7z
m118 -35 c-3 -3 -12 -4 -19 -1 -8 3 -5 6 6 6 11 1 17 -2 13 -5z m-347 -34 c0
-5 -5 -10 -11 -10 -5 0 -7 5 -4 10 3 6 8 10 11 10 2 0 4 -4 4 -10z m520 -80
c0 -5 -7 -10 -16 -10 -8 0 -12 5 -9 10 3 6 10 10 16 10 5 0 9 -4 9 -10z m-54
-16 c-3 -9 -6 -20 -6 -26 0 -5 -6 -8 -12 -5 -7 2 -23 0 -35 -4 -17 -6 -23 -5
-23 6 0 8 9 15 20 15 10 0 25 7 32 15 17 19 32 19 24 -1z m-38 -72 c3 -11 0
-12 -14 -4 -11 5 -26 7 -34 5 -13 -4 -13 -3 0 6 19 14 42 10 48 -7z"/>
<path d="M2990 2359 c0 -5 5 -7 10 -4 6 3 10 8 10 11 0 2 -4 4 -10 4 -5 0 -10
-5 -10 -11z"/>
<path d="M1156 2114 c-4 -10 -1 -14 6 -12 15 5 23 28 10 28 -5 0 -13 -7 -16
-16z"/>
<path d="M2950 1944 c-14 -7 -29 -15 -33 -16 -11 -4 12 -68 35 -97 10 -13 18
-34 18 -47 0 -30 18 -40 38 -20 15 15 15 16 -1 16 -22 0 -22 26 1 39 16 10 15
10 -3 11 -18 1 -18 2 3 10 26 11 29 30 5 30 -10 0 -24 4 -32 9 -11 7 -9 14 13
35 44 40 12 61 -44 30z"/>
<path d="M3035 1770 c3 -5 8 -10 11 -10 2 0 4 5 4 10 0 6 -5 10 -11 10 -5 0
-7 -4 -4 -10z"/>
<path d="M2048 1674 c-7 -7 40 -138 51 -142 5 -2 7 -11 4 -22 -7 -25 24 -76
54 -89 12 -6 23 -19 23 -28 0 -15 -2 -15 -9 -4 -8 12 -12 10 -22 -12 -7 -15
-18 -27 -26 -27 -7 0 -16 -7 -20 -16 -3 -8 -12 -13 -20 -10 -9 4 -17 -1 -20
-14 -3 -11 -9 -20 -14 -20 -5 0 -9 -8 -9 -19 0 -21 -42 -34 -80 -24 -19 5 -22
3 -17 -10 4 -10 2 -17 -3 -17 -6 0 -10 5 -10 10 0 6 -7 10 -15 10 -14 0 -32
24 -34 45 -1 6 -7 10 -13 10 -14 0 -29 10 -56 37 -12 12 -22 14 -32 8 -22 -14
-40 -12 -40 4 0 8 6 14 13 13 40 -1 48 3 42 23 -4 12 -2 20 5 20 6 0 9 4 6 8
-3 5 -1 24 4 43 6 20 6 46 1 64 -5 17 -10 22 -10 13 -1 -9 -9 -19 -19 -22 -18
-6 -62 -124 -62 -169 0 -14 -6 -28 -12 -30 -9 -4 -9 -6 2 -6 10 -1 9 -5 -6
-15 -15 -11 -20 -23 -16 -45 2 -18 10 -31 18 -31 9 0 14 -12 14 -34 0 -40 35
-69 90 -72 19 -2 55 -6 79 -10 32 -5 42 -4 37 4 -8 13 16 20 87 26 l48 4 -22
-19 c-12 -10 -29 -19 -37 -19 -9 0 -13 -3 -9 -6 3 -3 28 -1 56 5 47 10 53 9
73 -11 17 -17 23 -19 26 -8 6 17 71 80 83 80 5 0 9 -4 9 -10 0 -5 4 -10 10
-10 5 0 7 16 3 38 -3 20 -5 55 -4 77 1 30 -3 43 -21 57 -21 16 -21 19 -6 28
18 11 17 15 -29 141 -17 49 -30 69 -50 78 -20 9 -23 15 -15 23 16 16 15 28 -3
28 -10 0 -15 10 -15 26 0 23 3 26 30 22 18 -3 30 0 30 7 0 12 -35 13 -62 1
-11 -5 -23 -2 -33 8 -18 18 -19 18 -27 10z m144 -319 c0 -5 -5 -11 -11 -13 -6
-2 -11 4 -11 13 0 9 5 15 11 13 6 -2 11 -8 11 -13z"/>
<path d="M1783 1595 c-13 -14 -17 -35 -8 -35 8 0 45 34 45 42 0 13 -24 8 -37
-7z"/>
<path d="M2040 1600 c0 -5 5 -10 11 -10 5 0 7 5 4 10 -3 6 -8 10 -11 10 -2 0
-4 -4 -4 -10z"/>
<path d="M1642 1115 c10 -10 49 -14 43 -4 -4 5 -16 9 -27 9 -12 0 -19 -2 -16
-5z"/>
<path d="M1613 1085 c-9 -24 0 -27 57 -19 32 4 47 10 39 15 -7 4 -26 5 -41 2
-17 -3 -28 -1 -28 6 0 16 -20 13 -27 -4z"/>
<path d="M2328 1093 c6 -2 18 -2 25 0 6 3 1 5 -13 5 -14 0 -19 -2 -12 -5z"/>
<path d="M2760 1060 c0 -5 5 -10 11 -10 5 0 7 5 4 10 -3 6 -8 10 -11 10 -2 0
-4 -4 -4 -10z"/>
<path d="M2810 1060 c-13 -9 -13 -11 0 -19 17 -12 30 -5 30 15 0 16 -9 18 -30
4z"/>
<path d="M2745 980 c-3 -5 -1 -10 4 -10 6 0 11 5 11 10 0 6 -2 10 -4 10 -3 0
-8 -4 -11 -10z"/>
<path d="M2640 950 c0 -13 18 -22 24 -11 3 5 -1 11 -9 15 -8 3 -15 1 -15 -4z"/>
<path d="M2680 930 c0 -5 5 -10 11 -10 5 0 7 5 4 10 -3 6 -8 10 -11 10 -2 0
-4 -4 -4 -10z"/>
<path d="M2691 864 c0 -11 3 -14 6 -6 3 7 2 16 -1 19 -3 4 -6 -2 -5 -13z"/>
<path d="M2636 795 c4 -8 10 -12 15 -9 14 8 10 24 -6 24 -9 0 -12 -6 -9 -15z"/>
<path d="M2725 800 c-3 -5 -1 -10 4 -10 6 0 11 5 11 10 0 6 -2 10 -4 10 -3 0
-8 -4 -11 -10z"/>
</g>
</svg>
